<?xml version="1.0" encoding="UTF-8" standalone="no"?>
<svg
   xmlns:dc="http://purl.org/dc/elements/1.1/"
   xmlns:cc="http://creativecommons.org/ns#"
   xmlns:rdf="http://www.w3.org/1999/02/22-rdf-syntax-ns#"
   xmlns:svg="http://www.w3.org/2000/svg"
   xmlns="http://www.w3.org/2000/svg"
   xmlns:sodipodi="http://sodipodi.sourceforge.net/DTD/sodipodi-0.dtd"
   xmlns:inkscape="http://www.inkscape.org/namespaces/inkscape"
   width="222.52855"
   height="364.80222"
   viewBox="0 0 222.52855 364.80222"
   version="1.1"
   id="svg2216"
   inkscape:version="1.0.1 (3bc2e813f5, 2020-09-07)"
   sodipodi:docname="maine-thick-outline-444444.svg">
  <defs
     id="defs2210" />
  <sodipodi:namedview
     id="base"
     pagecolor="#ffffff"
     bordercolor="#666666"
     borderopacity="1.0"
     inkscape:pageopacity="0.0"
     inkscape:pageshadow="2"
     inkscape:zoom="0.9899495"
     inkscape:cx="272.15324"
     inkscape:cy="222.84083"
     inkscape:document-units="px"
     inkscape:current-layer="layer1"
     showgrid="false"
     units="px"
     inkscape:window-width="1366"
     inkscape:window-height="705"
     inkscape:window-x="-8"
     inkscape:window-y="-8"
     inkscape:window-maximized="1"
     fit-margin-top="10"
     fit-margin-left="10"
     fit-margin-bottom="20"
     fit-margin-right="10"
     inkscape:showpageshadow="false"
     inkscape:document-rotation="0" />
  <metadata
     id="metadata2213">
    <rdf:RDF>
      <cc:Work
         rdf:about="">
        <dc:format>image/svg+xml</dc:format>
        <dc:type
           rdf:resource="http://purl.org/dc/dcmitype/StillImage" />
        <dc:title></dc:title>
      </cc:Work>
    </rdf:RDF>
  </metadata>
  <g
     inkscape:label="Layer 1"
     inkscape:groupmode="layer"
     id="layer1"
     transform="translate(-29.146437,-144.78561)">
    <text
       xml:space="preserve"
       style="font-style:normal;font-variant:normal;font-weight:normal;font-stretch:normal;font-size:19.7556px;line-height:1.25;font-family:Pacifico;-inkscape-font-specification:Pacifico;font-variant-ligatures:normal;font-variant-position:normal;font-variant-caps:normal;font-variant-numeric:normal;font-variant-alternates:normal;font-feature-settings:normal;text-indent:0;text-align:start;text-decoration:none;text-decoration-line:none;text-decoration-style:solid;text-decoration-color:#000000;letter-spacing:0px;word-spacing:0px;text-transform:none;writing-mode:lr-tb;direction:ltr;text-orientation:mixed;dominant-baseline:auto;baseline-shift:baseline;text-anchor:start;white-space:normal;shape-padding:0;opacity:1;vector-effect:none;fill:#646464;fill-opacity:1;stroke:none;stroke-width:0.529167;stroke-linecap:butt;stroke-linejoin:miter;stroke-miterlimit:4;stroke-dasharray:none;stroke-dashoffset:0;stroke-opacity:1"
       x="197.2449"
       y="175.12508"
       id="text1039" />
    <path
       style="color:#000000;font-style:normal;font-variant:normal;font-weight:normal;font-stretch:normal;font-size:medium;line-height:normal;font-family:sans-serif;font-variant-ligatures:normal;font-variant-position:normal;font-variant-caps:normal;font-variant-numeric:normal;font-variant-alternates:normal;font-feature-settings:normal;text-indent:0;text-align:start;text-decoration:none;text-decoration-line:none;text-decoration-style:solid;text-decoration-color:#000000;letter-spacing:normal;word-spacing:normal;text-transform:none;writing-mode:lr-tb;direction:ltr;text-orientation:mixed;dominant-baseline:auto;baseline-shift:baseline;text-anchor:start;white-space:normal;shape-padding:0;clip-rule:nonzero;display:inline;overflow:visible;visibility:visible;opacity:1;isolation:auto;mix-blend-mode:normal;color-interpolation:sRGB;color-interpolation-filters:linearRGB;solid-color:#000000;solid-opacity:1;vector-effect:none;fill:#444444;fill-opacity:1;fill-rule:nonzero;stroke:none;stroke-width:6.47479;stroke-linecap:butt;stroke-linejoin:miter;stroke-miterlimit:4;stroke-dasharray:none;stroke-dashoffset:0;stroke-opacity:1;color-rendering:auto;image-rendering:auto;shape-rendering:auto;text-rendering:auto;enable-background:accumulate"
       d="m 125.72454,154.78929 c -3.5006,-0.0766 -6.42318,2.443 -7.36979,5.72105 -7.61436,15.89184 -15.02252,31.8818 -22.564334,47.80775 -1.708752,3.5049 -3.023657,7.16244 -4.14483,10.89106 -1.221431,4.09288 -4.142731,7.57059 -4.450298,11.94563 -0.422226,4.10514 0.658145,8.19169 0.337163,12.31102 -0.188701,4.8438 -2.048749,9.39807 -3.118717,14.0829 -1.133277,3.01987 -0.324321,6.22859 -0.366894,9.35903 -0.114968,2.5787 0.392004,5.42688 -0.821256,7.79096 -2.130445,2.86999 -5.965002,3.9497 -7.786778,7.14929 -5.010373,11.27507 -10.840724,19.33762 -22.457395,29.42351 -2.659363,-2.53113 -6.790839,-2.20456 -10.13948,-1.58325 -3.343516,0.50823 -3.356784,4.207 -3.345393,6.83334 -0.270921,50.19902 -0.325429,100.401 -0.350101,150.60147 1.44286,3.91245 1.53784,8.19305 3.387081,11.96506 1.596508,3.78207 3.537297,7.89548 7.227777,10.0275 3.10471,1.36153 6.927266,-0.35841 8.275808,-3.40023 4.659517,-7.17837 7.197351,-15.47934 8.777544,-23.82405 4.449532,-25.75633 33.984683,-35.73075 43.135713,-53.61235 1.28624,-3.55847 4.7486,-2.05939 6.79371,-0.1855 3.83279,1.99738 8.30482,0.28466 11.50418,-2.129 4.88053,-2.86333 10.1168,-6.04609 12.43379,-11.48741 2.94996,-5.73429 5.67847,-11.68031 7.20582,-17.96135 0.75385,-3.10951 -2.36853,-6.95611 0.54395,-9.32879 1.33285,-1.46154 3.97891,-5.24045 4.85244,-1.53114 1.77303,3.56317 2.68324,7.61487 5.19573,10.76948 1.82916,2.39629 5.20248,2.75235 7.82282,1.54529 3.39277,-1.42068 6.35187,-4.58604 6.72973,-8.3174 1.73453,-2.33513 4.37714,0.55612 6.28612,1.23861 3.50435,1.7541 7.90183,1.77652 11.1409,-0.59657 3.25302,-1.68008 3.8576,-6.23413 7.58133,-7.13309 12.04296,-6.91503 21.45236,-16.13499 34.43393,-20.77819 5.06019,-1.37875 7.99652,-6.42398 8.77012,-11.32985 0.9219,-2.88078 0.35462,-5.79415 -1.63471,-8.09672 -1.85708,-2.52855 -4.79472,-3.58947 -6.72057,-6.04324 -2.51554,-2.09742 -6.05803,-2.86387 -9.17224,-1.76969 -4.049,-0.007 -3.69304,-5.00754 -4.3666,-7.81067 -0.95136,-2.81316 -2.49258,-5.64497 -0.022,-8.06766 1.54634,-3.54002 -0.71017,-7.92837 -4.15852,-9.37425 -4.64469,-1.81269 -9.88167,-2.10202 -14.24143,-4.62441 -3.99744,-3.27947 -6.39512,-8.04177 -8.46097,-12.67457 -1.26387,-4.07595 -0.39548,-8.39353 -0.53821,-12.58029 0.51331,-27.83137 1.49756,-55.65122 2.094,-83.48062 -1.64468,-4.48729 -4.81252,-8.14908 -7.72527,-11.8511 -4.13519,-4.8898 -10.83374,-6.73484 -17.03364,-6.60668 -3.5592,-0.0653 -6.59181,1.885 -9.80669,3.06147 -3.9462,1.363 -7.45545,-1.51526 -10.91813,-2.94332 -3.19559,-1.65884 -6.9991,-1.0156 -10.02896,0.69807 -2.55052,1.87177 -6.01077,1.57351 -7.69808,-1.26019 -1.26689,-1.52541 -2.99109,-2.92651 -5.08939,-2.84086 z m -0.52576,9.39195 0.10974,0.10473 z m 0.59268,0.48752 c 3.17366,3.4125 8.27478,5.22364 12.76996,3.50453 2.81057,-0.82949 5.57316,-3.59596 8.36795,-1.22323 4.33745,2.14337 9.29627,4.27715 14.17644,2.67619 2.87394,-0.77357 5.40592,-2.62865 8.33976,-3.12613 3.40031,0.19773 7.21396,0.70077 9.76603,3.14306 2.10903,2.59253 4.30875,5.16242 6.01228,8.0382 0.52672,2.12196 -0.0434,4.33956 0.0757,6.50464 -0.75066,28.33884 -1.63438,56.6783 -2.14295,85.02087 0.4156,6.83091 4.23679,12.81594 7.99828,18.30559 2.79986,3.85991 6.93013,6.69787 11.61755,7.68513 2.28853,0.93188 6.17188,1.09748 7.46351,2.52733 -1.8814,3.70288 -0.64245,7.99865 0.78231,11.62939 0.46051,4.27204 1.51101,8.94551 5.1183,11.68927 2.06019,1.63265 4.60514,2.57588 7.19246,2.94364 2.46603,-0.44607 3.92686,-1.61158 5.26103,0.75505 1.19432,2.01211 5.90941,2.75703 3.88989,5.83536 -0.17008,3.5489 -4.16989,3.97916 -6.82636,4.62744 -8.08937,5.7329 -10.7675,8.21672 -17.71808,11.41132 -5.73855,4.38427 -14.78306,8.22558 -17.6912,11.0422 -2.67914,1.70944 -3.5611,7.3107 -7.5995,5.38515 -2.58627,-1.40193 -5.13706,-2.9977 -8.12368,-3.34975 -3.38855,-0.52399 -6.082,2.00322 -8.28708,4.19662 -1.85197,0.91218 -0.56826,4.89966 -2.39173,4.63803 -1.96626,-3.9285 -3.00604,-8.62852 -6.38871,-11.71704 -4.19678,-3.14752 -10.49365,-1.47877 -13.49887,2.54468 -2.40072,2.57231 -5.48035,5.30925 -5.39542,9.13847 -0.3599,3.51232 1.73136,7.14902 -0.33991,10.47795 -1.80262,5.00834 -4.15993,9.79725 -6.72542,14.45427 -2.16462,2.13706 -4.99623,3.35093 -7.474,5.0195 -2.08256,2.73434 -4.73111,1.32201 -6.93703,-0.22807 -3.53873,-1.67876 -7.9475,-1.18489 -10.8932,1.45616 -5.65076,12.93162 -16.892142,19.17813 -27.160851,28.87844 -8.010219,10.16574 -18.190053,19.61552 -20.419182,31.10733 -0.960636,2.97345 -1.129858,6.02416 -2.028381,8.4342 -0.982374,3.93146 -3.41222,7.26029 -4.821488,11.02029 -2.893157,-2.42123 -2.043534,-6.57813 -3.150467,-9.81766 -1.406938,-4.36574 -0.724473,-8.95804 -0.892343,-13.45368 -0.124316,-45.01509 0.201646,-90.02965 0.419957,-135.04393 2.470591,2.9536 7.378665,2.76891 9.971832,0.0702 8.019929,-10.86795 14.564199,-13.97096 18.66964,-22.8376 2.051152,-3.70136 3.642611,-7.63321 5.628252,-11.36812 2.325675,-2.35518 5.588995,-3.66392 7.455403,-6.50775 2.428101,-3.0891 2.951363,-7.12785 2.716722,-10.93383 0.0914,-3.11969 -0.319421,-6.28307 0.03355,-9.37325 1.842849,-6.8537 4.227606,-13.79457 3.470296,-21.00386 -0.0137,-2.74978 -0.901117,-5.65418 -0.0499,-8.29153 1.88429,-4.14166 3.92161,-8.25563 5.00067,-12.69822 2.77875,-7.14114 6.44454,-13.89208 9.58958,-20.87374 5.0761,-10.76168 10.13463,-21.53174 15.16843,-32.31321 z m -8.25918,16.91984 -0.0525,0.58301 z m 55.61563,187.53306 c -0.53053,0.0688 -1.69945,0.55037 -0.49446,0.17179 z"
       id="path834"
       inkscape:connector-curvature="0"
       sodipodi:nodetypes="ccccccccccccccccccccccccccccccccccccccccccccccccccccccccccccccccccccccccccccccccccccccccccccccccccccccccccccccc" />
  </g>
</svg>
